<?xml version="1.0" encoding="utf-8"?>
<!-- Generator: Adobe Illustrator 17.0.0, SVG Export Plug-In . SVG Version: 6.00 Build 0)  -->
<!DOCTYPE svg PUBLIC "-//W3C//DTD SVG 1.1//EN" "http://www.w3.org/Graphics/SVG/1.1/DTD/svg11.dtd">
<svg version="1.1" xmlns="http://www.w3.org/2000/svg" xmlns:xlink="http://www.w3.org/1999/xlink" x="0px" y="0px" width="40px"
	 height="40px" viewBox="0 0 40 40" enable-background="new 0 0 40 40" xml:space="preserve">
<g id="dash" display="none">
	<path display="inline" fill="#D1D2D4" d="M20,9.437c-11.067,0-20.039,8.972-20.039,20.039h1.477h2.53h4.008v-2.004H4.098
		c0.434-3.474,1.977-6.601,4.266-9.017l9.671,9.67c-0.031,0.141-0.05,0.285-0.05,0.434c0,1.108,0.897,2.004,2.004,2.004
		c1.107,0,2.003-0.896,2.003-2.004c0-1.107-0.897-2.004-2.003-2.004c-0.207,0-0.403,0.042-0.591,0.099l-9.57-9.569
		c2.526-2.076,5.699-3.392,9.17-3.606v3.973h2.004v-3.973c3.472,0.214,6.644,1.53,9.17,3.606l-1.691,1.691l1.417,1.417l1.739-1.738
		c2.29,2.416,3.832,5.542,4.266,9.017h-3.879v2.004h4.008h2.321h1.687C40.039,18.408,31.067,9.437,20,9.437z"/>
</g>
<g id="active_dash" display="none">
	<path display="inline" fill="#FDFEFF" d="M20,9.437c-11.067,0-20.039,8.972-20.039,20.039h1.477h2.53h4.008v-2.004H4.098
		c0.434-3.474,1.977-6.601,4.266-9.017l9.671,9.67c-0.031,0.141-0.05,0.285-0.05,0.434c0,1.108,0.897,2.004,2.004,2.004
		c1.107,0,2.003-0.896,2.003-2.004c0-1.107-0.897-2.004-2.003-2.004c-0.207,0-0.403,0.042-0.591,0.099l-9.57-9.569
		c2.526-2.076,5.699-3.392,9.17-3.606v3.973h2.004v-3.973c3.472,0.214,6.644,1.53,9.17,3.606l-1.691,1.691l1.417,1.417l1.739-1.738
		c2.29,2.416,3.832,5.542,4.266,9.017h-3.879v2.004h4.008h2.321h1.687C40.039,18.408,31.067,9.437,20,9.437z"/>
</g>
<g id="idea" display="none">
	<path display="inline" fill="#D0D2D3" d="M26.514,21.244c0-3.593-2.913-6.506-6.504-6.506c-3.594,0-6.507,2.913-6.507,6.506
		c0,2.112,1.011,4.828,2.573,6.714h7.868C25.503,26.072,26.514,23.356,26.514,21.244z"/>
	<polygon display="inline" fill="#D0D2D3" points="22.178,36.014 17.84,36.014 16.876,34.671 23.141,34.671 	"/>
	<path display="inline" fill="#D0D2D3" d="M23.928,29.344c0,0.336-0.273,0.61-0.608,0.61h-6.64c-0.337,0-0.61-0.274-0.61-0.61l0,0
		c0-0.335,0.272-0.608,0.61-0.608h6.64C23.655,28.736,23.928,29.009,23.928,29.344L23.928,29.344z"/>
	<path display="inline" fill="#D0D2D3" d="M23.977,31.324c0,0.337-0.274,0.609-0.61,0.609h-6.64c-0.336,0-0.609-0.272-0.609-0.609
		l0,0c0-0.336,0.272-0.608,0.609-0.608h6.64C23.704,30.716,23.977,30.989,23.977,31.324L23.977,31.324z"/>
	<path display="inline" fill="#D0D2D3" d="M23.9,33.396c0,0.337-0.273,0.61-0.608,0.61H16.65c-0.337,0-0.608-0.273-0.608-0.61l0,0
		c0-0.335,0.272-0.608,0.608-0.608h6.642C23.628,32.787,23.9,33.06,23.9,33.396L23.9,33.396z"/>
	<polygon display="inline" fill="#D0D2D3" points="20.619,13.185 19.375,13.185 18.63,3.986 21.366,3.986 	"/>
	<polygon display="inline" fill="#D0D2D3" points="13.192,17.117 12.571,18.194 4.229,14.241 5.597,11.873 	"/>
	<polygon display="inline" fill="#D0D2D3" points="16.354,14.116 15.278,14.738 10.03,7.143 12.399,5.776 	"/>
	<polygon display="inline" fill="#D0D2D3" points="26.81,17.244 27.43,18.32 35.771,14.366 34.403,11.998 	"/>
	<polygon display="inline" fill="#D0D2D3" points="23.648,13.916 24.724,14.537 29.971,6.943 27.602,5.574 	"/>
</g>
<g id="idea_active" display="none">
	<path display="inline" fill="#FDFEFF" d="M26.514,21.244c0-3.593-2.913-6.506-6.504-6.506c-3.594,0-6.507,2.913-6.507,6.506
		c0,2.112,1.011,4.828,2.573,6.714h7.868C25.503,26.072,26.514,23.356,26.514,21.244z"/>
	<polygon display="inline" fill="#FDFEFF" points="22.178,36.014 17.84,36.014 16.876,34.671 23.141,34.671 	"/>
	<path display="inline" fill="#FDFEFF" d="M23.928,29.344c0,0.336-0.273,0.61-0.608,0.61h-6.64c-0.337,0-0.61-0.274-0.61-0.61l0,0
		c0-0.335,0.272-0.608,0.61-0.608h6.64C23.655,28.736,23.928,29.009,23.928,29.344L23.928,29.344z"/>
	<path display="inline" fill="#FDFEFF" d="M23.977,31.324c0,0.337-0.274,0.609-0.61,0.609h-6.64c-0.336,0-0.609-0.272-0.609-0.609
		l0,0c0-0.336,0.272-0.608,0.609-0.608h6.64C23.704,30.716,23.977,30.989,23.977,31.324L23.977,31.324z"/>
	<path display="inline" fill="#FDFEFF" d="M23.9,33.396c0,0.337-0.273,0.61-0.608,0.61H16.65c-0.337,0-0.608-0.273-0.608-0.61l0,0
		c0-0.335,0.272-0.608,0.608-0.608h6.642C23.628,32.787,23.9,33.06,23.9,33.396L23.9,33.396z"/>
	<polygon display="inline" fill="#FDFEFF" points="20.619,13.185 19.375,13.185 18.63,3.986 21.366,3.986 	"/>
	<polygon display="inline" fill="#FDFEFF" points="13.192,17.117 12.571,18.194 4.229,14.241 5.597,11.873 	"/>
	<polygon display="inline" fill="#FDFEFF" points="16.354,14.116 15.278,14.738 10.03,7.143 12.399,5.776 	"/>
	<polygon display="inline" fill="#FDFEFF" points="26.81,17.244 27.43,18.32 35.771,14.366 34.403,11.998 	"/>
	<polygon display="inline" fill="#FDFEFF" points="23.648,13.916 24.724,14.537 29.971,6.943 27.602,5.574 	"/>
</g>
<g id="product" display="none">
	<g display="inline">
		<path fill="#D0D2D3" d="M32.966,5.307H11.48L7.015,7.083v27.609h21.485l4.484-1.767V5.317L32.966,5.307z M28.501,11.711v5.395
			H7.562V10.82H20.64l-0.06-0.079l0.487-0.372l-0.235-0.566l0.566-0.233l-0.081-0.607l0.607-0.079l0.079-0.608l0.607,0.082
			l0.233-0.566l0.566,0.235l0.371-0.487l0.486,0.374l0.485-0.374l0.372,0.487l0.567-0.235l0.233,0.566l0.607-0.082l0.079,0.608
			l0.608,0.079l-0.082,0.607l0.567,0.233l-0.237,0.566l0.488,0.372l-0.061,0.079h0.608V11.711z M32.438,32.304l-3.391,1.344v-5.194
			l3.391-1.344V32.304z M32.438,15.672l-3.391,1.344V7.449l3.391-1.344V15.672z"/>
		<polygon fill="#D0D2D3" points="20.583,8.796 21.153,9.232 20.877,9.893 21.54,10.166 21.445,10.877 22.156,10.969 22.247,11.68 
			22.958,11.585 23.231,12.248 23.893,11.972 24.327,12.542 24.895,12.104 25.464,12.542 25.898,11.972 26.56,12.248 26.833,11.585 
			27.543,11.68 27.635,10.969 28.347,10.877 28.252,10.166 28.914,9.893 28.638,9.232 29.208,8.796 28.771,8.229 29.137,7.753 
			20.654,7.753 21.021,8.229 		"/>
	</g>
</g>
<g id="product_active" display="none">
	<g display="inline">
		<path fill="#FDFEFF" d="M32.966,5.307H11.48L7.015,7.083v27.609h21.485l4.484-1.767V5.317L32.966,5.307z M28.501,11.711v5.395
			H7.562V10.82H20.64l-0.06-0.079l0.487-0.372l-0.235-0.566l0.566-0.233l-0.081-0.607l0.607-0.079l0.079-0.608l0.607,0.082
			l0.233-0.566l0.566,0.235l0.371-0.487l0.486,0.374l0.485-0.374l0.372,0.487l0.567-0.235l0.233,0.566l0.607-0.082l0.079,0.608
			l0.608,0.079l-0.082,0.607l0.567,0.233l-0.237,0.566l0.488,0.372l-0.061,0.079h0.608V11.711z M32.438,32.304l-3.391,1.344v-5.194
			l3.391-1.344V32.304z M32.438,15.672l-3.391,1.344V7.449l3.391-1.344V15.672z"/>
		<polygon fill="#FDFEFF" points="20.583,8.796 21.153,9.232 20.877,9.893 21.54,10.166 21.445,10.877 22.156,10.969 22.247,11.68 
			22.958,11.585 23.231,12.248 23.893,11.972 24.327,12.542 24.895,12.104 25.464,12.542 25.898,11.972 26.56,12.248 26.833,11.585 
			27.543,11.68 27.635,10.969 28.347,10.877 28.252,10.166 28.914,9.893 28.638,9.232 29.208,8.796 28.771,8.229 29.137,7.753 
			20.654,7.753 21.021,8.229 		"/>
	</g>
</g>
<g id="roadmap" display="none">
	<g id="Your_Icon_1_" display="inline">
		<path fill="#D0D2D3" d="M13.951,36.593c-4.291,0-7.782-4.003-7.782-8.925h3.346c0,3.076,1.99,5.578,4.436,5.578
			c2.422,0,4.469-2.571,4.469-5.614V12.293c0-4.899,3.477-8.886,7.748-8.886c4.292,0,7.783,4.004,7.783,8.923h-3.345
			c0-3.075-1.99-5.577-4.438-5.577c-2.428,0-4.403,2.485-4.403,5.539v15.339C21.765,32.572,18.259,36.593,13.951,36.593z"/>
		<g>
			<path fill="#D0D2D3" d="M7.722,13.511c-3.643,0-6.597,2.955-6.597,6.601s2.954,6.6,6.597,6.6c3.643,0,6.596-2.954,6.596-6.6
				S11.366,13.511,7.722,13.511z M8.995,22.317l-0.32-0.884H6.785l-0.351,0.884H5.005l2.001-5.208H8.48l1.959,5.208H8.995z"/>
			<polygon fill="#D0D2D3" points="7.162,20.411 8.316,20.411 7.73,18.725 			"/>
		</g>
		<g>
			<path fill="#D0D2D3" d="M32.335,20.171h-0.279v1.083h0.306c0.438,0,0.718-0.071,0.837-0.212c0.073-0.083,0.11-0.194,0.107-0.333
				c0-0.158-0.044-0.281-0.131-0.369C33.061,20.228,32.781,20.171,32.335,20.171z"/>
			<path fill="#D0D2D3" d="M32.821,18.985c0.084-0.084,0.126-0.199,0.126-0.347c0-0.139-0.042-0.257-0.126-0.351
				c-0.104-0.104-0.277-0.157-0.516-0.157h-0.249v1.019h0.249C32.543,19.149,32.716,19.094,32.821,18.985z"/>
			<path fill="#D0D2D3" d="M32.278,13.397c-3.643,0-6.597,2.955-6.597,6.6c0,3.645,2.954,6.599,6.597,6.599
				c3.643,0,6.597-2.954,6.597-6.599C38.875,16.352,35.921,13.397,32.278,13.397z M34.271,21.824
				c-0.315,0.329-0.783,0.493-1.403,0.493h-2.162v-5.208h2.025c0.518,0,0.9,0.134,1.145,0.4c0.214,0.232,0.322,0.553,0.322,0.965
				c0,0.231-0.051,0.446-0.151,0.644c-0.105,0.195-0.25,0.331-0.43,0.41c0.286,0.031,0.518,0.135,0.696,0.313
				c0.229,0.225,0.344,0.544,0.344,0.956C34.655,21.226,34.526,21.569,34.271,21.824z"/>
		</g>
	</g>
</g>
<g id="roadmap_active" display="none">
	<g id="Your_Icon_2_" display="inline">
		<path fill="#FDFEFF" d="M13.951,36.593c-4.291,0-7.782-4.003-7.782-8.925h3.346c0,3.076,1.99,5.578,4.436,5.578
			c2.422,0,4.469-2.571,4.469-5.614V12.293c0-4.899,3.477-8.886,7.748-8.886c4.292,0,7.783,4.004,7.783,8.923h-3.345
			c0-3.075-1.99-5.577-4.438-5.577c-2.428,0-4.403,2.485-4.403,5.539v15.339C21.765,32.572,18.259,36.593,13.951,36.593z"/>
		<g>
			<path fill="#FDFEFF" d="M7.722,13.511c-3.643,0-6.597,2.955-6.597,6.601s2.954,6.6,6.597,6.6c3.643,0,6.596-2.954,6.596-6.6
				S11.366,13.511,7.722,13.511z M8.995,22.317l-0.32-0.884H6.785l-0.351,0.884H5.005l2.001-5.208H8.48l1.959,5.208H8.995z"/>
			<polygon fill="#FDFEFF" points="7.162,20.411 8.316,20.411 7.73,18.725 			"/>
		</g>
		<g>
			<path fill="#FDFEFF" d="M32.335,20.171h-0.279v1.083h0.306c0.438,0,0.718-0.071,0.837-0.212c0.073-0.083,0.11-0.194,0.107-0.333
				c0-0.158-0.044-0.281-0.131-0.369C33.061,20.228,32.781,20.171,32.335,20.171z"/>
			<path fill="#FDFEFF" d="M32.821,18.985c0.084-0.084,0.126-0.199,0.126-0.347c0-0.139-0.042-0.257-0.126-0.351
				c-0.104-0.104-0.277-0.157-0.516-0.157h-0.249v1.019h0.249C32.543,19.149,32.716,19.094,32.821,18.985z"/>
			<path fill="#FDFEFF" d="M32.278,13.397c-3.643,0-6.597,2.955-6.597,6.6c0,3.645,2.954,6.599,6.597,6.599
				c3.643,0,6.597-2.954,6.597-6.599C38.875,16.352,35.921,13.397,32.278,13.397z M34.271,21.824
				c-0.315,0.329-0.783,0.493-1.403,0.493h-2.162v-5.208h2.025c0.518,0,0.9,0.134,1.145,0.4c0.214,0.232,0.322,0.553,0.322,0.965
				c0,0.231-0.051,0.446-0.151,0.644c-0.105,0.195-0.25,0.331-0.43,0.41c0.286,0.031,0.518,0.135,0.696,0.313
				c0.229,0.225,0.344,0.544,0.344,0.956C34.655,21.226,34.526,21.569,34.271,21.824z"/>
		</g>
	</g>
</g>
<g id="bricks">
	<g>
		<path fill="#D0D2D3" d="M19.688,9.483c0,0.433-0.358,0.783-0.798,0.783h-8c-0.44,0-0.797-0.351-0.797-0.783V5.593
			c0-0.432,0.357-0.782,0.797-0.782h8c0.44,0,0.798,0.35,0.798,0.782V9.483z"/>
		<path fill="#D0D2D3" d="M30.078,9.483c0,0.433-0.356,0.783-0.797,0.783h-8c-0.44,0-0.796-0.351-0.796-0.783V5.593
			c0-0.432,0.356-0.782,0.796-0.782h8c0.44,0,0.797,0.35,0.797,0.782L30.078,9.483L30.078,9.483z"/>
		<path fill="#D0D2D3" d="M19.688,21.951c0,0.433-0.358,0.783-0.798,0.783h-8c-0.44,0-0.797-0.351-0.797-0.783v-3.89
			c0-0.433,0.357-0.782,0.797-0.782h8c0.44,0,0.798,0.35,0.798,0.782V21.951z"/>
		<path fill="#D0D2D3" d="M30.078,21.951c0,0.433-0.356,0.783-0.797,0.783h-8c-0.44,0-0.796-0.351-0.796-0.783v-3.89
			c0-0.433,0.356-0.782,0.796-0.782h8c0.44,0,0.797,0.35,0.797,0.782L30.078,21.951L30.078,21.951z"/>
		<path fill="#D0D2D3" d="M14.412,15.724c0,0.432-0.357,0.782-0.798,0.782H5.615c-0.44,0-0.798-0.351-0.798-0.782v-3.892
			c0-0.432,0.357-0.782,0.798-0.782h7.999c0.441,0,0.798,0.351,0.798,0.782V15.724z"/>
		<path fill="#D0D2D3" d="M24.802,15.724c0,0.432-0.356,0.782-0.797,0.782h-8c-0.44,0-0.796-0.351-0.796-0.782v-3.892
			c0-0.432,0.356-0.782,0.796-0.782h8c0.44,0,0.797,0.351,0.797,0.782L24.802,15.724L24.802,15.724z"/>
		<path fill="#D0D2D3" d="M35.183,15.724c0,0.432-0.357,0.782-0.798,0.782h-7.999c-0.44,0-0.797-0.351-0.797-0.782v-3.892
			c0-0.432,0.356-0.782,0.797-0.782h7.999c0.441,0,0.798,0.351,0.798,0.782V15.724z"/>
		<path fill="#D0D2D3" d="M19.688,34.407c0,0.433-0.358,0.782-0.798,0.782h-8c-0.44,0-0.797-0.35-0.797-0.782v-3.891
			c0-0.432,0.357-0.782,0.797-0.782h8c0.44,0,0.798,0.351,0.798,0.782V34.407z"/>
		<path fill="#D0D2D3" d="M30.078,34.407c0,0.433-0.356,0.782-0.797,0.782h-8c-0.44,0-0.796-0.35-0.796-0.782v-3.891
			c0-0.432,0.356-0.782,0.796-0.782h8c0.44,0,0.797,0.351,0.797,0.782L30.078,34.407L30.078,34.407z"/>
		<path fill="#D0D2D3" d="M14.412,28.179c0,0.433-0.357,0.782-0.798,0.782H5.615c-0.44,0-0.798-0.35-0.798-0.782v-3.891
			c0-0.433,0.357-0.781,0.798-0.781h7.999c0.441,0,0.798,0.349,0.798,0.781V28.179z"/>
		<path fill="#D0D2D3" d="M24.802,28.179c0,0.433-0.356,0.782-0.797,0.782h-8c-0.44,0-0.796-0.35-0.796-0.782v-3.891
			c0-0.433,0.356-0.781,0.796-0.781h8c0.44,0,0.797,0.349,0.797,0.781L24.802,28.179L24.802,28.179z"/>
		<path fill="#D0D2D3" d="M35.183,28.179c0,0.433-0.357,0.782-0.798,0.782h-7.999c-0.44,0-0.797-0.35-0.797-0.782v-3.891
			c0-0.433,0.356-0.781,0.797-0.781h7.999c0.441,0,0.798,0.349,0.798,0.781V28.179z"/>
	</g>
</g>
<g id="bricks_active">
	<g>
		<path fill="#FDFEFF" d="M19.688,9.483c0,0.433-0.358,0.783-0.798,0.783h-8c-0.44,0-0.797-0.351-0.797-0.783V5.593
			c0-0.432,0.357-0.782,0.797-0.782h8c0.44,0,0.798,0.35,0.798,0.782V9.483z"/>
		<path fill="#FDFEFF" d="M30.078,9.483c0,0.433-0.356,0.783-0.797,0.783h-8c-0.44,0-0.796-0.351-0.796-0.783V5.593
			c0-0.432,0.356-0.782,0.796-0.782h8c0.44,0,0.797,0.35,0.797,0.782L30.078,9.483L30.078,9.483z"/>
		<path fill="#FDFEFF" d="M19.688,21.951c0,0.433-0.358,0.783-0.798,0.783h-8c-0.44,0-0.797-0.351-0.797-0.783v-3.89
			c0-0.433,0.357-0.782,0.797-0.782h8c0.44,0,0.798,0.35,0.798,0.782V21.951z"/>
		<path fill="#FDFEFF" d="M30.078,21.951c0,0.433-0.356,0.783-0.797,0.783h-8c-0.44,0-0.796-0.351-0.796-0.783v-3.89
			c0-0.433,0.356-0.782,0.796-0.782h8c0.44,0,0.797,0.35,0.797,0.782L30.078,21.951L30.078,21.951z"/>
		<path fill="#FDFEFF" d="M14.412,15.724c0,0.432-0.357,0.782-0.798,0.782H5.615c-0.44,0-0.798-0.351-0.798-0.782v-3.892
			c0-0.432,0.357-0.782,0.798-0.782h7.999c0.441,0,0.798,0.351,0.798,0.782V15.724z"/>
		<path fill="#FDFEFF" d="M24.802,15.724c0,0.432-0.356,0.782-0.797,0.782h-8c-0.44,0-0.796-0.351-0.796-0.782v-3.892
			c0-0.432,0.356-0.782,0.796-0.782h8c0.44,0,0.797,0.351,0.797,0.782L24.802,15.724L24.802,15.724z"/>
		<path fill="#FDFEFF" d="M35.183,15.724c0,0.432-0.357,0.782-0.798,0.782h-7.999c-0.44,0-0.797-0.351-0.797-0.782v-3.892
			c0-0.432,0.356-0.782,0.797-0.782h7.999c0.441,0,0.798,0.351,0.798,0.782V15.724z"/>
		<path fill="#FDFEFF" d="M19.688,34.407c0,0.433-0.358,0.782-0.798,0.782h-8c-0.44,0-0.797-0.35-0.797-0.782v-3.891
			c0-0.432,0.357-0.782,0.797-0.782h8c0.44,0,0.798,0.351,0.798,0.782V34.407z"/>
		<path fill="#FDFEFF" d="M30.078,34.407c0,0.433-0.356,0.782-0.797,0.782h-8c-0.44,0-0.796-0.35-0.796-0.782v-3.891
			c0-0.432,0.356-0.782,0.796-0.782h8c0.44,0,0.797,0.351,0.797,0.782L30.078,34.407L30.078,34.407z"/>
		<path fill="#FDFEFF" d="M14.412,28.179c0,0.433-0.357,0.782-0.798,0.782H5.615c-0.44,0-0.798-0.35-0.798-0.782v-3.891
			c0-0.433,0.357-0.781,0.798-0.781h7.999c0.441,0,0.798,0.349,0.798,0.781V28.179z"/>
		<path fill="#FDFEFF" d="M24.802,28.179c0,0.433-0.356,0.782-0.797,0.782h-8c-0.44,0-0.796-0.35-0.796-0.782v-3.891
			c0-0.433,0.356-0.781,0.796-0.781h8c0.44,0,0.797,0.349,0.797,0.781L24.802,28.179L24.802,28.179z"/>
		<path fill="#FDFEFF" d="M35.183,28.179c0,0.433-0.357,0.782-0.798,0.782h-7.999c-0.44,0-0.797-0.35-0.797-0.782v-3.891
			c0-0.433,0.356-0.781,0.797-0.781h7.999c0.441,0,0.798,0.349,0.798,0.781V28.179z"/>
	</g>
</g>
<g id="Layer_6" display="none">
	<g display="inline">
		<path id="Head" fill="#D0D2D3" d="M19.589,20.504c2.754,0,4.987-2.233,4.987-4.987c0-2.756-2.233-4.988-4.987-4.988
			s-4.988,2.232-4.988,4.988C14.601,18.271,16.834,20.504,19.589,20.504L19.589,20.504z"/>
		<path id="Torso" fill="#D0D2D3" d="M34.149,26.737c-1.201-0.376-2.48,0.29-2.856,1.49l-0.427,1.361l-2.092-5.797
			c-0.325-0.902-1.182-1.504-2.143-1.504H13.478c-0.786,0-1.515,0.403-1.933,1.069l-3.152,5.042l-0.525-4.127
			c-0.158-1.247-1.302-2.135-2.548-1.972c-1.248,0.159-2.131,1.3-1.971,2.548l1.33,9.894c0.122,0.956,0.831,1.731,1.771,1.937
			c0.941,0.205,1.91-0.198,2.421-1.015l3.509-5.646v7.474h14.045v-6.787l2.448,6.791c0.325,0.905,1.184,1.506,2.142,1.506
			c0.016,0,0.033,0,0.049,0c0.976-0.021,1.833-0.663,2.125-1.597l2.45-7.812C36.017,28.392,35.348,27.112,34.149,26.737z"/>
		<path id="Object_2_" fill="#D0D2D3" d="M34.49,15.75c1.245,0,2.254,1.007,2.254,2.253c0,1.244-1.008,2.252-2.254,2.252
			c-1.242,0-2.251-1.008-2.251-2.252C32.239,16.759,33.248,15.75,34.49,15.75z"/>
		
			<rect id="Object_1_" x="20.208" y="1.471" transform="matrix(-0.9597 0.2812 -0.2812 -0.9597 44.4146 0.4973)" fill="#D0D2D3" width="3.928" height="3.928"/>
		<polygon id="Object" fill="#D0D2D3" points="3.255,11.669 9.026,10.325 7.305,15.994 		"/>
	</g>
</g>
</svg>
