<?xml version="1.0" encoding="utf-8"?>
<!-- Generator: Adobe Illustrator 17.0.0, SVG Export Plug-In . SVG Version: 6.00 Build 0)  -->
<!DOCTYPE svg PUBLIC "-//W3C//DTD SVG 1.1//EN" "http://www.w3.org/Graphics/SVG/1.1/DTD/svg11.dtd">
<svg version="1.1" id="Layer_1" xmlns="http://www.w3.org/2000/svg" xmlns:xlink="http://www.w3.org/1999/xlink" x="0px" y="0px"
	 width="47px" height="47px" viewBox="0 0 47 47" enable-background="new 0 0 47 47" xml:space="preserve">
<g>
	<rect x="25.062" y="19.809" fill="#929497" width="4.794" height="7.336"/>
	<path fill="#6D6E70" d="M42.313,29.298c-2.536,8.44-10.365,14.588-19.63,14.588c-11.328,0-20.501-9.176-20.501-20.499
		c0-11.326,9.173-20.503,20.501-20.503c9.326,0,17.191,6.229,19.676,14.756h4.862C44.624,7.498,35.429,0,24.474,0
		C11.513,0,1,10.513,1,23.479s10.513,23.477,23.474,23.477c10.955,0,20.154-7.506,22.746-17.658H42.313z"/>
	<path fill="#6D6E70" d="M33.337,29.298c-2.286,5.292-7.535,8.993-13.656,8.993c-8.214,0-14.878-6.656-14.878-14.878
		c0-8.216,6.664-14.873,14.878-14.873c6.165,0,11.452,3.752,13.709,9.1h4.896c-2.393-6.901-8.945-11.857-16.663-11.857
		c-9.744,0-17.637,7.896-17.637,17.635c0,9.744,7.894,17.635,17.637,17.635c7.677,0,14.199-4.905,16.624-11.755H33.337z"/>
	<path fill="#6D6E70" d="M24.113,29.298c-1.675,1.947-4.149,3.18-6.914,3.18c-5.05,0-9.148-4.096-9.148-9.146
		c0-5.051,4.098-9.148,9.148-9.148c2.897,0,5.47,1.354,7.147,3.457h4.908c-2.008-3.528-5.801-5.905-10.156-5.905
		c-6.45,0-11.676,5.23-11.676,11.678c0,6.454,5.226,11.684,11.676,11.684c4.307,0,8.064-2.332,10.085-5.799H24.113z"/>
	<rect x="42.796" y="19.809" fill="#929497" width="4.795" height="7.336"/>
	<rect x="34.014" y="19.809" fill="#929497" width="4.799" height="7.336"/>
</g>
</svg>
